<svg xmlns="http://www.w3.org/2000/svg" viewBox="0 0 1200 630" fill="none" role="img">
  <title>Buenos Aires Expats</title>
  <rect width="1200" height="630" fill="#0EA5E9"/>
  <!-- Logo centered -->
  <g transform="translate(600, 315) scale(0.8)">
    <circle cx="0" cy="0" r="220" fill="white"/>
    <circle cx="0" cy="0" r="180" fill="#0EA5E9" opacity="0.1"/>
    <!-- Compass points -->
    <path d="M0 -160 L20 -40 L0 -20 L-20 -40 Z" fill="#0EA5E9"/>
    <path d="M0 160 L-20 40 L0 20 L20 40 Z" fill="#64748B"/>
    <path d="M-160 0 L-40 -20 L0 0 L-40 20 Z" fill="#64748B"/>
    <path d="M160 0 L40 20 L0 0 L40 -20 Z" fill="#64748B"/>
    <!-- Center sun -->
    <circle cx="0" cy="0" r="40" fill="#FACC15"/>
    <g stroke="#FACC15" stroke-width="6" stroke-linecap="round">
      <line x1="0" y1="-60" x2="0" y2="-80"/>
      <line x1="0" y1="60" x2="0" y2="80"/>
      <line x1="-60" y1="0" x2="-80" y2="0"/>
      <line x1="60" y1="0" x2="80" y2="0"/>
    </g>
  </g>
  <!-- Text -->
  <text x="600" y="520" text-anchor="middle" font-family="system-ui, sans-serif" font-size="48" font-weight="bold" fill="white">Buenos Aires Expats</text>
  <text x="600" y="570" text-anchor="middle" font-family="system-ui, sans-serif" font-size="24" fill="white" opacity="0.9">Your Complete Guide to Living in Buenos Aires</text>
</svg>